<svg xmlns="http://www.w3.org/2000/svg" viewBox="0 0 128 128" width="128" height="128">
  <defs>
    <linearGradient id="bgGrad" x1="0%" y1="0%" x2="100%" y2="100%">
      <stop offset="0%" stop-color="#fb923c"/>
      <stop offset="100%" stop-color="#ea580c"/>
    </linearGradient>
    <filter id="shadow" x="-10%" y="-10%" width="120%" height="120%">
      <feDropShadow dx="0" dy="4" stdDeviation="6" flood-color="#7c2d12" flood-opacity="0.35"/>
    </filter>
  </defs>
  <rect width="128" height="128" rx="30" fill="url(#bgGrad)"/>
  
  <g filter="url(#shadow)">
    <!-- Leaves / Stem -->
    <path d="M64 22c0-2.5-2-4.5-4.5-4.5S55 19.5 55 22c0 .9.3 1.8.8 2.5-3.2 1.6-5.4 4.7-5.8 8.4 2.3-.7 4.8-.7 7.1 0-1.1-2.3-1.4-4.9-.8-7.3 1.5 1.5 3.1 2.5 5.1 3.1 1.6-.5 3-1.3 4.1-2.4-.2 2.2-1.1 4.2-2.6 5.8 2.3-.7 4.8-.7 7.1 0-.4-3.7-2.6-6.8-5.8-8.4.5-.7.8-1.6.8-2.5 0-2.5-2-4.5-4.5-4.5h-.5z" fill="#22c55e"/>
    
    <!-- Clock Body -->
    <circle cx="64" cy="74" r="36" fill="#ffffff"/>
    <circle cx="64" cy="74" r="28" fill="#fff7ed"/>
    
    <!-- Clock Hands (Material Rounded) -->
    <path d="M64 54c-1.66 0-3 1.34-3 3v17c0 .8.32 1.56.88 2.12l10 10c1.17 1.17 3.07 1.17 4.24 0 1.17-1.17 1.17-3.07 0-4.24L67 69.76V57c0-1.66-1.34-3-3-3z" fill="#ea580c"/>
    <circle cx="64" cy="74" r="4.5" fill="#c2410c"/>
  </g>
</svg>
